<svg width="12" height="12" viewBox="0 0 12 12" fill="none" xmlns="http://www.w3.org/2000/svg">
<path d="M12 10.44L8.79976 7.263C9.26824 6.5305 9.53875 5.663 9.53875 4.7335C9.53925 2.124 7.39938 0 4.76937 0C2.13937 0 0 2.124 0 4.734C0 7.3445 2.13937 9.4685 4.76937 9.4685C5.65998 9.4685 6.49265 9.225 7.20695 8.802L10.4288 12L12 10.44ZM1.77718 4.734C1.77718 3.0975 3.11964 1.765 4.76887 1.765C6.4186 1.765 7.76106 3.097 7.76106 4.734C7.76106 6.3715 6.4186 7.7035 4.76887 7.7035C3.11964 7.7035 1.77718 6.3715 1.77718 4.734Z" fill="black"/>
</svg>
